<mxfile host="www.draw.io" modified="2019-11-15T16:04:19.387Z" agent="Mozilla/5.0 (Macintosh; Intel Mac OS X 10_14_6) AppleWebKit/537.36 (KHTML, like Gecko) Chrome/78.0.3904.97 Safari/537.36" etag="VKPd0Cwk302-QQW5sd52" version="12.2.6" type="github" pages="1">
  <diagram id="wXman4j62HttRl6OTmI5" name="Page-1">
    <mxGraphModel dx="1412" dy="699" grid="1" gridSize="10" guides="1" tooltips="1" connect="1" arrows="1" fold="1" page="1" pageScale="1" pageWidth="827" pageHeight="1169" math="0" shadow="0">
      <root>
        <mxCell id="0"/>
        <mxCell id="1" parent="0"/>
        <mxCell id="erQiUhtEwH-6Iim5sydV-18" style="edgeStyle=orthogonalEdgeStyle;rounded=0;orthogonalLoop=1;jettySize=auto;html=1;exitX=1;exitY=0.5;exitDx=0;exitDy=0;strokeWidth=3;fillColor=#1ba1e2;strokeColor=#006EAF;" edge="1" parent="1" source="erQiUhtEwH-6Iim5sydV-1" target="erQiUhtEwH-6Iim5sydV-2">
          <mxGeometry relative="1" as="geometry"/>
        </mxCell>
        <mxCell id="erQiUhtEwH-6Iim5sydV-1" value="&lt;font style=&quot;font-size: 16px&quot;&gt;实现链表节点&lt;/font&gt;" style="rounded=0;whiteSpace=wrap;html=1;fillColor=#dae8fc;strokeColor=#6c8ebf;" vertex="1" parent="1">
          <mxGeometry x="208" y="170" width="120" height="60" as="geometry"/>
        </mxCell>
        <mxCell id="erQiUhtEwH-6Iim5sydV-2" value="&lt;font style=&quot;font-size: 16px&quot;&gt;可以存放Key-Value数据&lt;/font&gt;" style="rounded=0;whiteSpace=wrap;html=1;fillColor=#dae8fc;strokeColor=#6c8ebf;" vertex="1" parent="1">
          <mxGeometry x="468" y="170" width="230" height="60" as="geometry"/>
        </mxCell>
        <mxCell id="erQiUhtEwH-6Iim5sydV-3" value="" style="shape=flexArrow;endArrow=classic;html=1;fillColor=#1ba1e2;strokeColor=#006EAF;" edge="1" parent="1">
          <mxGeometry width="50" height="50" relative="1" as="geometry">
            <mxPoint x="268" y="252" as="sourcePoint"/>
            <mxPoint x="268" y="322" as="targetPoint"/>
          </mxGeometry>
        </mxCell>
        <mxCell id="erQiUhtEwH-6Iim5sydV-11" style="edgeStyle=orthogonalEdgeStyle;rounded=0;orthogonalLoop=1;jettySize=auto;html=1;exitX=0.25;exitY=1;exitDx=0;exitDy=0;entryX=0.5;entryY=0;entryDx=0;entryDy=0;strokeWidth=3;fillColor=#1ba1e2;strokeColor=#006EAF;" edge="1" parent="1" source="erQiUhtEwH-6Iim5sydV-4" target="erQiUhtEwH-6Iim5sydV-9">
          <mxGeometry relative="1" as="geometry"/>
        </mxCell>
        <mxCell id="erQiUhtEwH-6Iim5sydV-12" style="edgeStyle=orthogonalEdgeStyle;rounded=0;orthogonalLoop=1;jettySize=auto;html=1;exitX=0.75;exitY=1;exitDx=0;exitDy=0;entryX=0.5;entryY=0;entryDx=0;entryDy=0;strokeWidth=3;fillColor=#1ba1e2;strokeColor=#006EAF;" edge="1" parent="1" source="erQiUhtEwH-6Iim5sydV-4" target="erQiUhtEwH-6Iim5sydV-10">
          <mxGeometry relative="1" as="geometry"/>
        </mxCell>
        <mxCell id="erQiUhtEwH-6Iim5sydV-14" style="edgeStyle=orthogonalEdgeStyle;rounded=0;orthogonalLoop=1;jettySize=auto;html=1;exitX=1;exitY=0.75;exitDx=0;exitDy=0;entryX=0;entryY=0.5;entryDx=0;entryDy=0;strokeWidth=3;fillColor=#1ba1e2;strokeColor=#006EAF;" edge="1" parent="1" source="erQiUhtEwH-6Iim5sydV-4" target="erQiUhtEwH-6Iim5sydV-8">
          <mxGeometry relative="1" as="geometry">
            <Array as="points">
              <mxPoint x="338" y="367"/>
              <mxPoint x="438" y="367"/>
              <mxPoint x="438" y="467"/>
            </Array>
          </mxGeometry>
        </mxCell>
        <mxCell id="erQiUhtEwH-6Iim5sydV-15" style="edgeStyle=orthogonalEdgeStyle;rounded=0;orthogonalLoop=1;jettySize=auto;html=1;exitX=1;exitY=0.5;exitDx=0;exitDy=0;entryX=0;entryY=0.5;entryDx=0;entryDy=0;strokeWidth=3;fillColor=#1ba1e2;strokeColor=#006EAF;" edge="1" parent="1" source="erQiUhtEwH-6Iim5sydV-4" target="erQiUhtEwH-6Iim5sydV-7">
          <mxGeometry relative="1" as="geometry">
            <Array as="points">
              <mxPoint x="438" y="367"/>
              <mxPoint x="438" y="407"/>
            </Array>
          </mxGeometry>
        </mxCell>
        <mxCell id="erQiUhtEwH-6Iim5sydV-16" style="edgeStyle=orthogonalEdgeStyle;rounded=0;orthogonalLoop=1;jettySize=auto;html=1;exitX=1;exitY=0.5;exitDx=0;exitDy=0;strokeWidth=3;fillColor=#1ba1e2;strokeColor=#006EAF;" edge="1" parent="1" source="erQiUhtEwH-6Iim5sydV-4" target="erQiUhtEwH-6Iim5sydV-6">
          <mxGeometry relative="1" as="geometry">
            <Array as="points">
              <mxPoint x="438" y="367"/>
              <mxPoint x="438" y="347"/>
            </Array>
          </mxGeometry>
        </mxCell>
        <mxCell id="erQiUhtEwH-6Iim5sydV-17" style="edgeStyle=orthogonalEdgeStyle;rounded=0;orthogonalLoop=1;jettySize=auto;html=1;exitX=1;exitY=0.5;exitDx=0;exitDy=0;entryX=0;entryY=0.5;entryDx=0;entryDy=0;strokeWidth=3;fillColor=#1ba1e2;strokeColor=#006EAF;" edge="1" parent="1" source="erQiUhtEwH-6Iim5sydV-4" target="erQiUhtEwH-6Iim5sydV-5">
          <mxGeometry relative="1" as="geometry">
            <Array as="points">
              <mxPoint x="438" y="367"/>
              <mxPoint x="438" y="287"/>
            </Array>
          </mxGeometry>
        </mxCell>
        <mxCell id="erQiUhtEwH-6Iim5sydV-4" value="&lt;font style=&quot;font-size: 16px&quot;&gt;实现双向链表&lt;/font&gt;" style="rounded=0;whiteSpace=wrap;html=1;fillColor=#dae8fc;strokeColor=#6c8ebf;" vertex="1" parent="1">
          <mxGeometry x="198" y="337" width="140" height="60" as="geometry"/>
        </mxCell>
        <mxCell id="erQiUhtEwH-6Iim5sydV-5" value="&lt;span style=&quot;font-size: 16px&quot;&gt;往头部增加节点&lt;/span&gt;" style="rounded=0;whiteSpace=wrap;html=1;fillColor=#dae8fc;strokeColor=#6c8ebf;" vertex="1" parent="1">
          <mxGeometry x="483" y="267" width="200" height="40" as="geometry"/>
        </mxCell>
        <mxCell id="erQiUhtEwH-6Iim5sydV-6" value="&lt;span style=&quot;font-size: 16px&quot;&gt;往头部增加节点&lt;/span&gt;" style="rounded=0;whiteSpace=wrap;html=1;fillColor=#dae8fc;strokeColor=#6c8ebf;" vertex="1" parent="1">
          <mxGeometry x="483" y="327" width="200" height="40" as="geometry"/>
        </mxCell>
        <mxCell id="erQiUhtEwH-6Iim5sydV-7" value="&lt;span style=&quot;font-size: 16px&quot;&gt;往头部增加节点&lt;/span&gt;" style="rounded=0;whiteSpace=wrap;html=1;fillColor=#dae8fc;strokeColor=#6c8ebf;" vertex="1" parent="1">
          <mxGeometry x="483" y="387" width="200" height="40" as="geometry"/>
        </mxCell>
        <mxCell id="erQiUhtEwH-6Iim5sydV-8" value="&lt;span style=&quot;font-size: 16px&quot;&gt;往头部增加节点&lt;/span&gt;" style="rounded=0;whiteSpace=wrap;html=1;fillColor=#dae8fc;strokeColor=#6c8ebf;" vertex="1" parent="1">
          <mxGeometry x="483" y="447" width="200" height="40" as="geometry"/>
        </mxCell>
        <mxCell id="erQiUhtEwH-6Iim5sydV-9" value="&lt;span style=&quot;font-size: 16px&quot;&gt;弹出头部节点&lt;/span&gt;" style="rounded=0;whiteSpace=wrap;html=1;fillColor=#dae8fc;strokeColor=#6c8ebf;" vertex="1" parent="1">
          <mxGeometry x="128" y="447" width="120" height="40" as="geometry"/>
        </mxCell>
        <mxCell id="erQiUhtEwH-6Iim5sydV-10" value="&lt;span style=&quot;font-size: 16px&quot;&gt;弹出尾部节点&lt;/span&gt;" style="rounded=0;whiteSpace=wrap;html=1;fillColor=#dae8fc;strokeColor=#6c8ebf;" vertex="1" parent="1">
          <mxGeometry x="293" y="447" width="115" height="40" as="geometry"/>
        </mxCell>
        <mxCell id="erQiUhtEwH-6Iim5sydV-21" value="&lt;font color=&quot;#ea6b66&quot; style=&quot;font-size: 26px&quot;&gt;&lt;b&gt;双向链表的原理与实践&lt;/b&gt;&lt;/font&gt;" style="text;html=1;resizable=0;points=[];autosize=1;align=left;verticalAlign=top;spacingTop=-4;" vertex="1" parent="1">
          <mxGeometry x="273" y="90" width="280" height="20" as="geometry"/>
        </mxCell>
      </root>
    </mxGraphModel>
  </diagram>
</mxfile>
